<?xml version="1.0" encoding="UTF-8" standalone="no"?>
<!-- Created with Inkscape (http://www.inkscape.org/) -->

<svg
   width="38.705719mm"
   height="20.000031mm"
   viewBox="0 0 38.705719 20.000031"
   version="1.1"
   id="svg488"
   inkscape:version="1.1.2 (0a00cf5339, 2022-02-04)"
   sodipodi:docname="chuv.svg"
   xmlns:inkscape="http://www.inkscape.org/namespaces/inkscape"
   xmlns:sodipodi="http://sodipodi.sourceforge.net/DTD/sodipodi-0.dtd"
   xmlns="http://www.w3.org/2000/svg"
   xmlns:svg="http://www.w3.org/2000/svg">
  <sodipodi:namedview
     id="namedview490"
     pagecolor="#ffffff"
     bordercolor="#666666"
     borderopacity="1.0"
     inkscape:pageshadow="2"
     inkscape:pageopacity="0.0"
     inkscape:pagecheckerboard="0"
     inkscape:document-units="mm"
     showgrid="false"
     fit-margin-top="0"
     fit-margin-left="0"
     fit-margin-right="0"
     fit-margin-bottom="0"
     inkscape:zoom="1.5554293"
     inkscape:cx="-40.824742"
     inkscape:cy="212.48153"
     inkscape:window-width="3370"
     inkscape:window-height="1376"
     inkscape:window-x="0"
     inkscape:window-y="0"
     inkscape:window-maximized="1"
     inkscape:current-layer="layer1" />
  <defs
     id="defs485">
    <clipPath
       clipPathUnits="userSpaceOnUse"
       id="clipPath249">
      <path
         d="M 0,0 H 841.89 V 595.276 H 0 Z"
         id="path247" />
    </clipPath>
  </defs>
  <g
     inkscape:label="Calque 1"
     inkscape:groupmode="layer"
     id="layer1"
     transform="translate(-1.6150009,-0.57428439)">
    <g
       id="g243"
       transform="matrix(0.35277777,0,0,-0.35277777,-157.60038,99.09806)">
      <g
         id="g245"
         clip-path="url(#clipPath249)">
        <g
           id="g251"
           transform="translate(492.4962,240.654)">
          <path
             d="M 0,0 -3.47,6.008 H -5.198 L 0,-2.99 Z m -9.885,14.522 h 1.496 l -1.496,2.591 z m 35.072,24.09 -0.009,0.014 h -1.726 l 1.735,-3.003 z M 9.241,-3.893 H 7.829 l 8.185,-14.174 h 1.728 L 9.241,-3.351 Z m -19.711,28.346 -8.186,14.173 h -1.729 l 8.187,-14.173 z m -3.653,0 -8.186,14.173 h -1.729 l 8.186,-14.173 z M 0,24.453 H 0.489 L -7.696,38.626 H -9.425 L 0,22.309 Z m 4.142,0 -8.186,14.173 H -5.772 L 2.415,24.453 Z m 3.655,0 -8.187,14.173 H -2.12 L 6.065,24.453 Z m 17.39,7.84 -3.659,6.333 H 19.8 l 5.387,-9.327 z M 0,18.977 -11.35,38.626 h -1.728 L 0,15.982 Z M -1.081,14.522 -15.002,38.626 H -16.73 L -2.809,14.522 Z M 0,6.008 H -1.546 L 0,3.333 Z m -4.734,8.514 -5.151,8.916 v -2.992 l 3.423,-5.924 z m -9.358,-18.415 8.188,-14.174 h 1.727 l -8.186,14.174 z M -9.885,1.475 1.401,-18.067 H 3.129 L -9.885,4.464 Z m 0,-5.368 h -0.552 l 8.186,-14.174 h 1.727 L -9.885,-1.859 Z M -8.851,6.008 5.054,-18.067 H 6.782 L -7.123,6.008 Z m 13.023,-9.901 8.187,-14.174 h 1.729 L 5.902,-3.893 Z m -3.651,0 8.186,-14.174 h 1.727 L 2.249,-3.893 Z m -32.028,-14.121 0.031,-0.053 h 1.728 l -1.759,3.045 z M 57.632,24.453 46.167,4.558 V 24.453 H 36.493 V -3.888 H 52.175 L 68.54,24.453 Z m -89.139,-36.142 3.684,-6.378 h 1.727 l -5.411,9.37 z m 56.694,37.655 -7.312,12.66 H 16.147 L 25.186,22.975 V 19.643 L 14.22,38.626 H 12.494 L 25.186,16.65 v -3.335 l -6.272,10.86 v 0.278 h -0.16 L 10.567,38.626 H 8.84 L 17.026,24.453 H 15.102 L 6.917,38.626 H 5.186 L 13.373,24.453 H 11.449 L 3.263,38.626 H 1.534 L 9.72,24.453 H 9.241 V -0.019 l 0.221,-0.382 c 0.228,-0.787 0.63,-1.497 1.191,-2.064 l 9.012,-15.602 h 1.73 L 13.154,-3.8 c 0.3,-0.058 0.608,-0.093 0.924,-0.093 h 1.055 l 8.187,-14.174 h 1.729 l -8.186,14.174 h 1.924 l 6.4,-11.082 v 2.992 l -4.674,8.09 h 1.924 l 2.75,-4.76 v 2.995 l -1.019,1.765 h 5.856 c 2.671,0 4.833,2.164 4.833,4.834 v 23.512 h -9.67 z M 20.926,4.979 c -1.333,0 -2.012,0.68 -2.012,2.014 v 1.542 l 2.053,-3.556 z m 2.247,0 h -0.478 l -3.781,6.548 v 3.331 l 5.504,-9.53 C 24.095,5.117 23.7,4.979 23.173,4.979 m 2.013,2.014 -6.272,10.86 v 3.332 L 25.186,10.326 Z M -19.104,-3.893 V 7.776 l -4.505,7.799 h 1.927 l 2.578,-4.463 v 2.991 l -0.851,1.472 h 0.851 v 8.878 h 1.329 l -8.187,14.173 h -1.728 l 8.186,-14.173 h -1.926 l -8.185,14.173 h -1.728 l 8.187,-14.173 h -1.927 l -6.424,11.123 v -2.989 l 4.699,-8.134 h -1.927 l -2.772,4.798 V 26.26 l 1.043,-1.807 h -6.464 c -2.668,0 -4.249,-2.163 -4.249,-4.83 V 0.941 c 0,-2.67 2.163,-4.834 4.83,-4.834 h 4.84 v -1.469 l 7.337,-12.705 h 1.729 l -8.187,14.174 h 1.926 l 8.186,-14.174 h 1.727 l -8.185,14.174 h 1.923 l 8.186,-14.174 h 1.73 l -8.187,14.174 h 1.925 l 8.185,-14.174 h 1.729 l -8.186,14.174 z M -31.507,7.003 v 0.282 l 1.264,-2.187 c -0.828,0.226 -1.264,0.856 -1.264,1.905 m 3.054,-2.015 -3.054,5.289 v 3.297 c 0,0.011 0.004,0.018 0.004,0.029 l 4.976,-8.615 z m 3.655,0 -5.922,10.255 c 0.288,0.179 0.631,0.308 1.092,0.332 h 0.638 l 6.116,-10.587 z m -2.463,10.587 h 1.925 l 6.115,-10.587 h -1.924 z m 9.517,-19.468 8.186,-14.174 h 1.729 l -8.187,14.174 z"
             style="fill:#ffffff;fill-opacity:1;fill-rule:nonzero;stroke:none"
             id="path253" />
        </g>
      </g>
    </g>
  </g>
</svg>
